<mxfile host="app.diagrams.net" modified="2020-11-15T16:46:37.321Z" agent="5.0 (X11; Linux x86_64) AppleWebKit/537.36 (KHTML, like Gecko) Chrome/86.0.4240.198 Safari/537.36" etag="EEkzEx7b1WqOQQ-wTZZw" version="13.9.8" type="github">
  <diagram id="yOPlDOoLQ-UkVAJMB56S" name="Page-1">
    <mxGraphModel dx="2272" dy="677" grid="1" gridSize="10" guides="1" tooltips="1" connect="1" arrows="1" fold="1" page="1" pageScale="1" pageWidth="850" pageHeight="1100" math="0" shadow="0">
      <root>
        <mxCell id="0" />
        <mxCell id="1" parent="0" />
        <mxCell id="yhF0vTTJquYo7YU1Fg5K-1" value="" style="ellipse;whiteSpace=wrap;html=1;aspect=fixed;fillColor=#ffe6cc;strokeColor=#d79b00;" vertex="1" parent="1">
          <mxGeometry x="385" y="40" width="80" height="80" as="geometry" />
        </mxCell>
        <mxCell id="yhF0vTTJquYo7YU1Fg5K-3" value="" style="edgeStyle=orthogonalEdgeStyle;rounded=0;orthogonalLoop=1;jettySize=auto;html=1;" edge="1" parent="1" source="yhF0vTTJquYo7YU1Fg5K-2" target="yhF0vTTJquYo7YU1Fg5K-1">
          <mxGeometry relative="1" as="geometry" />
        </mxCell>
        <mxCell id="yhF0vTTJquYo7YU1Fg5K-10" style="edgeStyle=orthogonalEdgeStyle;rounded=0;orthogonalLoop=1;jettySize=auto;html=1;entryX=0.5;entryY=0;entryDx=0;entryDy=0;" edge="1" parent="1" source="yhF0vTTJquYo7YU1Fg5K-2" target="yhF0vTTJquYo7YU1Fg5K-5">
          <mxGeometry relative="1" as="geometry" />
        </mxCell>
        <mxCell id="yhF0vTTJquYo7YU1Fg5K-2" value="" style="ellipse;whiteSpace=wrap;html=1;" vertex="1" parent="1">
          <mxGeometry x="365" y="160" width="120" height="80" as="geometry" />
        </mxCell>
        <mxCell id="yhF0vTTJquYo7YU1Fg5K-14" value="" style="edgeStyle=orthogonalEdgeStyle;rounded=0;orthogonalLoop=1;jettySize=auto;html=1;" edge="1" parent="1" source="yhF0vTTJquYo7YU1Fg5K-4" target="yhF0vTTJquYo7YU1Fg5K-9">
          <mxGeometry relative="1" as="geometry" />
        </mxCell>
        <mxCell id="yhF0vTTJquYo7YU1Fg5K-4" value="" style="rhombus;whiteSpace=wrap;html=1;" vertex="1" parent="1">
          <mxGeometry x="400" y="300" width="80" height="80" as="geometry" />
        </mxCell>
        <mxCell id="yhF0vTTJquYo7YU1Fg5K-11" value="" style="edgeStyle=orthogonalEdgeStyle;rounded=0;orthogonalLoop=1;jettySize=auto;html=1;" edge="1" parent="1" source="yhF0vTTJquYo7YU1Fg5K-5" target="yhF0vTTJquYo7YU1Fg5K-6">
          <mxGeometry relative="1" as="geometry" />
        </mxCell>
        <mxCell id="yhF0vTTJquYo7YU1Fg5K-17" value="" style="edgeStyle=orthogonalEdgeStyle;rounded=0;orthogonalLoop=1;jettySize=auto;html=1;" edge="1" parent="1" source="yhF0vTTJquYo7YU1Fg5K-5" target="yhF0vTTJquYo7YU1Fg5K-16">
          <mxGeometry relative="1" as="geometry">
            <Array as="points">
              <mxPoint x="50" y="450" />
              <mxPoint x="50" y="450" />
            </Array>
          </mxGeometry>
        </mxCell>
        <mxCell id="yhF0vTTJquYo7YU1Fg5K-5" value="" style="rhombus;whiteSpace=wrap;html=1;" vertex="1" parent="1">
          <mxGeometry x="10" y="300" width="80" height="80" as="geometry" />
        </mxCell>
        <mxCell id="yhF0vTTJquYo7YU1Fg5K-12" value="" style="edgeStyle=orthogonalEdgeStyle;rounded=0;orthogonalLoop=1;jettySize=auto;html=1;" edge="1" parent="1" source="yhF0vTTJquYo7YU1Fg5K-6" target="yhF0vTTJquYo7YU1Fg5K-7">
          <mxGeometry relative="1" as="geometry" />
        </mxCell>
        <mxCell id="yhF0vTTJquYo7YU1Fg5K-6" value="" style="rhombus;whiteSpace=wrap;html=1;" vertex="1" parent="1">
          <mxGeometry x="140" y="300" width="80" height="80" as="geometry" />
        </mxCell>
        <mxCell id="yhF0vTTJquYo7YU1Fg5K-13" value="" style="edgeStyle=orthogonalEdgeStyle;rounded=0;orthogonalLoop=1;jettySize=auto;html=1;" edge="1" parent="1" source="yhF0vTTJquYo7YU1Fg5K-7" target="yhF0vTTJquYo7YU1Fg5K-4">
          <mxGeometry relative="1" as="geometry" />
        </mxCell>
        <mxCell id="yhF0vTTJquYo7YU1Fg5K-7" value="" style="rhombus;whiteSpace=wrap;html=1;" vertex="1" parent="1">
          <mxGeometry x="270" y="300" width="80" height="80" as="geometry" />
        </mxCell>
        <mxCell id="yhF0vTTJquYo7YU1Fg5K-19" style="edgeStyle=orthogonalEdgeStyle;rounded=0;orthogonalLoop=1;jettySize=auto;html=1;entryX=0.5;entryY=0;entryDx=0;entryDy=0;" edge="1" parent="1" source="yhF0vTTJquYo7YU1Fg5K-8" target="yhF0vTTJquYo7YU1Fg5K-16">
          <mxGeometry relative="1" as="geometry">
            <mxPoint x="50" y="460" as="targetPoint" />
            <Array as="points">
              <mxPoint x="680" y="430" />
              <mxPoint x="50" y="430" />
            </Array>
          </mxGeometry>
        </mxCell>
        <mxCell id="yhF0vTTJquYo7YU1Fg5K-8" value="" style="rhombus;whiteSpace=wrap;html=1;" vertex="1" parent="1">
          <mxGeometry x="640" y="300" width="80" height="80" as="geometry" />
        </mxCell>
        <mxCell id="yhF0vTTJquYo7YU1Fg5K-15" value="" style="edgeStyle=orthogonalEdgeStyle;rounded=0;orthogonalLoop=1;jettySize=auto;html=1;" edge="1" parent="1" source="yhF0vTTJquYo7YU1Fg5K-9" target="yhF0vTTJquYo7YU1Fg5K-8">
          <mxGeometry relative="1" as="geometry" />
        </mxCell>
        <mxCell id="yhF0vTTJquYo7YU1Fg5K-20" style="edgeStyle=orthogonalEdgeStyle;rounded=0;orthogonalLoop=1;jettySize=auto;html=1;exitX=0.5;exitY=1;exitDx=0;exitDy=0;" edge="1" parent="1" source="yhF0vTTJquYo7YU1Fg5K-9">
          <mxGeometry relative="1" as="geometry">
            <mxPoint x="560" y="430" as="targetPoint" />
          </mxGeometry>
        </mxCell>
        <mxCell id="yhF0vTTJquYo7YU1Fg5K-9" value="" style="rhombus;whiteSpace=wrap;html=1;" vertex="1" parent="1">
          <mxGeometry x="520" y="300" width="80" height="80" as="geometry" />
        </mxCell>
        <mxCell id="yhF0vTTJquYo7YU1Fg5K-16" value="" style="whiteSpace=wrap;html=1;" vertex="1" parent="1">
          <mxGeometry x="-10" y="470" width="120" height="60" as="geometry" />
        </mxCell>
      </root>
    </mxGraphModel>
  </diagram>
</mxfile>
